<svg width="93" height="16" viewBox="0 0 93 16" fill="none" xmlns="http://www.w3.org/2000/svg">
<path fill-rule="evenodd" clip-rule="evenodd" d="M40.4871 16L35.5963 10.2857L29.0958 16H24.4526V0H29.5601V9.35907L40.6109 0H46.8019L39.1561 7.32046L46.2756 15.0425V15.9691" fill="#003979"/>
<path fill-rule="evenodd" clip-rule="evenodd" d="M17.6441 5.25097C17.9537 5.25097 18.2632 5.03475 18.2632 4.69498C18.2632 4.3861 17.9537 4.07722 17.6441 4.07722H5.66469C4.51937 4.07722 3.59073 3.76834 3.59073 2.03861C3.59073 0.30888 4.51937 0 5.66469 0H19.9038C21.5134 0 22.8135 1.2973 22.8135 2.90348V16H4.24078C1.85728 16 0 15.1351 0 10.6255C0 6.11583 1.85728 5.25097 4.20983 5.25097H17.6441ZM5.88137 9.35907C5.20037 9.35907 4.64319 9.45174 4.64319 10.6564C4.64319 11.8919 5.20037 11.9537 5.88137 11.9537H17.7989V9.35907H5.88137ZM48.2273 16V0H65.2523C68.874 0 69.8955 3.58301 69.8955 8.03089C69.8955 12.417 68.874 16 65.2523 16H48.2273ZM62.714 11.8919C64.5713 11.8919 64.9427 10.2857 64.9427 8C64.9427 5.6834 64.5713 4.04633 62.714 4.04633H52.9324V11.861H62.714V11.8919ZM89.985 6.30116C90.7279 5.6834 91.2232 4.6332 91.2232 3.52124C91.2232 1.5444 89.7683 0 88.0349 0H71.0098V15.9691H88.5921C90.9446 15.9691 92.8638 14.7336 92.8638 11.027C92.8638 8.86487 91.6256 7.01158 89.985 6.30116ZM75.3125 3.45946H86.0538C86.6729 3.45946 87.2301 3.95367 87.2301 4.54054C87.2301 5.1583 86.7038 5.62162 86.0538 5.62162H75.3125V3.45946ZM87.9111 12.0463H75.3125V9.26641H87.9111C88.623 9.26641 89.2421 9.88417 89.2421 10.6564C89.2421 11.4286 88.623 12.0154 87.8801 12.0154L87.9111 12.0463Z" fill="#00A1E0"/>
</svg>
